<?xml version="1.0" encoding="UTF-8"?>
<svg width="100%" height="100%" viewBox="0 0 271 270" version="1.1" xmlns="http://www.w3.org/2000/svg" xmlns:xlink="http://www.w3.org/1999/xlink">
    <title>编组</title>
    <defs>
        <linearGradient x1="0%" y1="50%" x2="100%" y2="50%" id="linearGradient-1">
            <stop stop-color="#1582C7" offset="0%"></stop>
            <stop stop-color="#79B652" offset="100%"></stop>
        </linearGradient>
    </defs>
    <g id="页面-1" stroke="none" stroke-width="1" fill="none" fill-rule="evenodd">
        <g id="画框" transform="translate(-2693, -777)">
            <g id="编组" transform="translate(2693, 777)">
                <path d="M137,0.008 L136,0 C210.558441,0 271,60.4415588 271,135 C271,209.224398 211.098819,269.458126 137.001275,269.996364 L137,223.992 L137.471778,223.988077 C185.946291,223.202136 225,183.661809 225,135 C225,86.1808064 185.693264,46.5421929 137.001148,46.0055148 L137,0.008 Z" id="形状结合" fill="#1582C7"></path>
                <rect id="矩形" fill="#FFFFFF" x="197" y="65" width="64" height="64" rx="8"></rect>
                <path d="M121,69 C125.418278,69 129,72.581722 129,77 L129,116 C129,117.420072 128.629996,118.753726 127.981134,119.909813 L142.478381,134.405519 C143.271142,134.142429 144.118938,134 145,134 L184,134 C185.108429,134 186.164207,134.225425 187.12399,134.63293 L201.958326,119.799934 C201.34704,118.669541 201,117.375298 201,116 L201,77 C201,72.581722 204.581722,69 209,69 L248,69 C252.418278,69 256,72.581722 256,77 L256,116 C256,120.418278 252.418278,124 248,124 L209.071,124 L191.952033,141.11891 C191.983731,141.408247 192,141.702223 192,142 L192,181 C192,185.418278 188.418278,189 184,189 L145,189 C140.581722,189 137,185.418278 137,181 L137,142 C137,141.452837 137.054931,140.918504 137.15958,140.402215 L120.757,124 L82,124 C81.4032724,124 80.8218043,123.934666 80.2623588,123.810762 L65.3150398,138.756209 C65.755344,139.747658 66,140.845258 66,142 L66,181 C66,185.418278 62.418278,189 58,189 L19,189 C14.581722,189 11,185.418278 11,181 L11,142 C11,137.581722 14.581722,134 19,134 L58,134 C58.2443068,134 58.4860558,134.010951 58.724783,134.032389 L74.3640872,118.393129 C74.1275088,117.637493 74,116.833637 74,116 L74,77 C74,72.581722 77.581722,69 82,69 L121,69 Z" id="形状结合" fill="url(#linearGradient-1)"></path>
                <rect id="矩形" stroke="#1582C7" fill="#1582C7" x="62.5" y="16.5" width="42" height="42" rx="8"></rect>
                <rect id="矩形" stroke="#1582C7" fill="#1582C7" x="15.5" y="70.5" width="37" height="37" rx="8"></rect>
                <rect id="矩形" stroke="#1582C7" fill="#1582C7" x="33.5" y="200.5" width="21" height="21" rx="8"></rect>
                <rect id="矩形" stroke="#1582C7" fill="#1582C7" x="0.5" y="113.5" width="17" height="17" rx="8"></rect>
                <rect id="矩形" stroke="#1582C7" fill="#1582C7" x="51.5" y="114.5" width="9" height="9" rx="4.5"></rect>
                <rect id="矩形" stroke="#1582C7" fill="#1582C7" x="59.5" y="65.5" width="9" height="9" rx="4.5"></rect>
                <rect id="矩形" stroke="#1582C7" fill="#1582C7" x="32.5" y="43.5" width="17" height="17" rx="8"></rect>
                <rect id="矩形" stroke="#1582C7" fill="#1582C7" x="115.5" y="46.5" width="9" height="9" rx="4.5"></rect>
                <rect id="矩形" stroke="#1582C7" fill="#1582C7" x="81.5" y="137.5" width="32" height="32" rx="8"></rect>
                <rect id="矩形" stroke="#1582C7" fill="#1582C7" x="83.5" y="182.5" width="9" height="9" rx="4.5"></rect>
                <rect id="矩形" stroke="#1582C7" fill="#1582C7" x="109.5" y="181.5" width="16" height="16" rx="8"></rect>
                <rect id="矩形" stroke="#1582C7" fill="#1582C7" x="118.5" y="225.5" width="9" height="9" rx="4.5"></rect>
                <rect id="矩形" stroke="#1582C7" fill="#1582C7" x="67.5" y="209.5" width="41" height="41" rx="8"></rect>
            </g>
        </g>
    </g>
</svg>