<?xml version="1.0" encoding="UTF-8"?>
<svg width="100%" height="100%" viewBox="0 0 850 276" version="1.1" xmlns="http://www.w3.org/2000/svg" xmlns:xlink="http://www.w3.org/1999/xlink">
    <title>编组</title>
    <defs>
        <linearGradient x1="0%" y1="50%" x2="100%" y2="50%" id="linearGradient-1">
            <stop stop-color="#1582C7" offset="0%"></stop>
            <stop stop-color="#79B652" offset="100%"></stop>
        </linearGradient>
    </defs>
    <g id="页面-1" stroke="none" stroke-width="1" fill="none" fill-rule="evenodd">
        <g id="画框" transform="translate(-21, -308)">
            <g id="编组" transform="translate(21, 308)">
                <path d="M271,141 C271,215.224398 211.098819,275.458126 137.001275,275.996364 L137,229.992 L137.471778,229.988077 C185.946291,229.202136 225,189.661809 225,141 C225,138.983747 224.932954,136.983153 224.800968,135.000327 L253,135 C257.418278,135 261,131.418278 261,127 L261.002713,89.9223541 C267.447541,105.678456 271,122.924367 271,141 Z M137,6.008 L136,6 C184.929449,6 227.779146,32.0305089 251.456281,70.9987158 L205,71 C201.434626,71 198.414004,73.3323626 197.380665,76.5545577 C181.637457,61.5535386 160.403267,52.2634499 137.001148,52.0055148 L137,6.008 Z" id="形状结合" fill="#1582C7"></path>
                <path d="M120,76 C124.418278,76 128,79.581722 128,84 L128,123 C128,124.154742 127.755344,125.252342 127.31504,126.243791 L142.478381,141.405519 C143.271142,141.142429 144.118938,141 145,141 L184,141 C184.54681,141 185.080806,141.05486 185.596785,141.159377 L201.606809,125.151522 C201.215803,124.225561 201,123.210251 201,122.145455 L201,83.8545455 C201,79.5165998 204.581722,76 209,76 L248,76 C252.418278,76 256,79.5165998 256,83.8545455 L256,122.145455 C256,126.4834 252.418278,130 248,130 L209,130 C208.702223,130 208.408247,129.984027 208.11891,129.952905 L191.594149,146.477381 C191.857451,147.270429 192,148.118567 192,149 L192,188 C192,192.418278 188.418278,196 184,196 L145,196 C140.581722,196 137,192.418278 137,188 L137,149 C137,148.452837 137.054931,147.918504 137.15958,147.402215 L120.724783,130.967611 C120.486056,130.989049 120.244307,131 120,131 L81,131 C80.7025664,131 80.408924,130.983768 80.1199102,130.952142 L65.3150398,145.756209 C65.755344,146.747658 66,147.845258 66,149 L66,188 C66,192.418278 62.418278,196 58,196 L19,196 C14.581722,196 11,192.418278 11,188 L11,149 C11,144.581722 14.581722,141 19,141 L58,141 C58.2443068,141 58.4860558,141.010951 58.724783,141.032389 L73.6333554,126.124993 C73.2255817,125.164942 73,124.108815 73,123 L73,84 C73,79.581722 76.581722,76 81,76 L120,76 Z" id="形状结合" fill="url(#linearGradient-1)"></path>
                <rect id="矩形" stroke="#1582C7" fill="#1582C7" x="62.5" y="22.5" width="42" height="42" rx="8"></rect>
                <rect id="矩形" stroke="#1582C7" fill="#1582C7" x="15.5" y="76.5" width="37" height="37" rx="8"></rect>
                <rect id="矩形" stroke="#1582C7" fill="#1582C7" x="33.5" y="206.5" width="21" height="21" rx="8"></rect>
                <rect id="矩形" stroke="#1582C7" fill="#1582C7" x="0.5" y="119.5" width="17" height="17" rx="8"></rect>
                <rect id="矩形" stroke="#1582C7" fill="#1582C7" x="51.5" y="120.5" width="9" height="9" rx="4.5"></rect>
                <rect id="矩形" stroke="#1582C7" fill="#1582C7" x="59.5" y="71.5" width="9" height="9" rx="4.5"></rect>
                <rect id="矩形" stroke="#1582C7" fill="#1582C7" x="32.5" y="49.5" width="17" height="17" rx="8"></rect>
                <rect id="矩形" stroke="#1582C7" fill="#1582C7" x="115.5" y="52.5" width="9" height="9" rx="4.5"></rect>
                <rect id="矩形" stroke="#1582C7" fill="#1582C7" x="81.5" y="143.5" width="32" height="32" rx="8"></rect>
                <rect id="矩形" stroke="#1582C7" fill="#1582C7" x="83.5" y="188.5" width="9" height="9" rx="4.5"></rect>
                <rect id="矩形" stroke="#1582C7" fill="#1582C7" x="109.5" y="187.5" width="16" height="16" rx="8"></rect>
                <rect id="矩形" stroke="#1582C7" fill="#1582C7" x="118.5" y="231.5" width="9" height="9" rx="4.5"></rect>
                <rect id="矩形" stroke="#1582C7" fill="#1582C7" x="67.5" y="215.5" width="41" height="41" rx="8"></rect>
                <text id="灵捷云" font-family="DingTalk-JinBuTi, DingTalk JinBuTi" font-size="170" font-style="italic" font-weight="normal" fill="#1582C7">
                    <tspan x="316" y="162">灵捷云</tspan>
                </text>
                <text id="——LINGJIE-CLOUD——" font-family="DingTalk-JinBuTi, DingTalk JinBuTi" font-size="38" font-style="italic" font-weight="normal" fill="#1582C7">
                    <tspan x="350" y="251">——LINGJIE CLOUD——</tspan>
                </text>
            </g>
        </g>
    </g>
</svg>